<svg width="20" height="20" viewBox="0 0 20 20" fill="none" xmlns="http://www.w3.org/2000/svg">
<path d="M11.4138 9.99985L17.7069 3.70685C17.8944 3.51934 17.9997 3.26503 17.9997 2.99985C17.9997 2.73467 17.8944 2.48036 17.7069 2.29285C17.5193 2.10534 17.265 2 16.9998 2C16.7347 2 16.4804 2.10534 16.2928 2.29285L9.99985 8.58585L3.70685 2.29285C3.614 2.2 3.50378 2.12636 3.38247 2.07611C3.26117 2.02586 3.13115 2 2.99985 2C2.86855 2 2.73853 2.02586 2.61722 2.07611C2.49592 2.12636 2.38569 2.2 2.29285 2.29285C2.10534 2.48036 2 2.73467 2 2.99985C2 3.26503 2.10534 3.51934 2.29285 3.70685L8.58585 9.99985L2.29285 16.2928C2.10534 16.4804 2 16.7347 2 16.9998C2 17.265 2.10534 17.5193 2.29285 17.7069C2.48036 17.8944 2.73467 17.9997 2.99985 17.9997C3.26503 17.9997 3.51934 17.8944 3.70685 17.7069L9.99985 11.4138L16.2928 17.7069C16.3855 17.8 16.4957 17.874 16.617 17.9244C16.7383 17.9749 16.8684 18.0009 16.9998 18.0009C17.1313 18.0009 17.2614 17.9749 17.3827 17.9244C17.504 17.874 17.6142 17.8 17.7069 17.7069C17.7998 17.6141 17.8735 17.5039 17.9238 17.3825C17.9742 17.2612 18 17.1312 18 16.9998C18 16.8685 17.9742 16.7385 17.9238 16.6172C17.8735 16.4958 17.7998 16.3856 17.7069 16.2928L11.4138 9.99985Z" fill="#5C5F62"/>
</svg>
